<?xml version="1.0" encoding="UTF-8" standalone="no"?><!DOCTYPE svg PUBLIC "-//W3C//DTD SVG 1.1//EN" "http://www.w3.org/Graphics/SVG/1.1/DTD/svg11.dtd"><svg width="100%" height="100%" viewBox="0 0 3334 3334" version="1.1" xmlns="http://www.w3.org/2000/svg" xmlns:xlink="http://www.w3.org/1999/xlink" xml:space="preserve" xmlns:serif="http://www.serif.com/" style="fill-rule:evenodd;clip-rule:evenodd;stroke-linejoin:round;stroke-miterlimit:2;"><g><rect x="0" y="0" width="3333.33" height="3333.33" style="fill:#f4f4f3;fill-rule:nonzero;"/><path d="M48.142,2129.45l106.066,318.204l-318.191,-106.071l212.125,-212.133Z" style="fill:#f9f188;fill-rule:nonzero;"/><path d="M71.533,2069.65l-164.458,164.462l246.687,82.23l-82.229,-246.692Zm-241.591,182.671l259.8,-259.804l129.9,389.704l-389.7,-129.9Z" style="fill-rule:nonzero;"/><path d="M87.925,1561.76l-0,104.755l104.758,-0l-0.004,104.758l83.925,-0l0,41.662l-125.591,0.005l-0,-104.755l-104.759,0l0.004,-104.758l-104.754,0.004l0,-125.596l41.667,0.004l-0,83.921l104.754,0Z" style="fill:#1141ff;fill-rule:nonzero;"/><path d="M-41.971,1386.03l-0.004,104.754l104.754,0l0,104.758l83.925,0l0,41.667l-125.592,0l0,-104.758l-104.754,0.004l0.005,-104.758l-104.759,-0l0,-125.592l41.667,-0l-0,83.925l104.758,-0Z" style="fill-rule:nonzero;"/><path d="M-197.021,352.896c0,-115.059 93.275,-208.333 208.329,-208.333c115.059,-0 208.334,93.274 208.334,208.333c-0,115.058 -93.275,208.329 -208.334,208.329c-115.054,-0 -208.329,-93.271 -208.329,-208.329Z" style="fill:#1a6cb6;fill-rule:nonzero;"/><path d="M160.333,602.558c103.388,0 187.5,-84.112 187.5,-187.496c0,-103.387 -84.112,-187.5 -187.5,-187.5c-103.387,0 -187.496,84.113 -187.496,187.5c0,103.384 84.109,187.496 187.496,187.496Zm0,-416.662c126.363,-0 229.167,102.804 229.167,229.166c0,126.359 -102.804,229.163 -229.167,229.163c-126.362,0 -229.162,-102.804 -229.162,-229.163c-0,-126.362 102.8,-229.166 229.162,-229.166Z" style="fill-rule:nonzero;"/><rect x="-163.158" y="2697.15" width="416.663" height="416.667" style="fill:#faf089;fill-rule:nonzero;"/><path d="M121.467,2786.88l-374.996,0l-0,375l374.996,-0l-0,-375Zm-416.663,-41.667l458.329,0l0,458.334l-458.329,-0l0,-458.334Z" style="fill-rule:nonzero;"/><path d="M3381.48,2129.45l106.067,318.204l-318.2,-106.071l212.133,-212.133Z" style="fill:#f9f188;fill-rule:nonzero;"/><path d="M3404.87,2069.65l-164.463,164.462l246.692,82.23l-82.229,-246.692Zm-241.592,182.671l259.8,-259.804l129.904,389.704l-389.704,-129.9Z" style="fill-rule:nonzero;"/><path d="M3421.26,1561.76l-0,104.755l104.754,-0l-0,104.758l83.921,-0l0.004,41.662l-125.596,0.005l0.004,-104.755l-104.758,0l0.004,-104.758l-104.763,0.004l0.004,-125.596l41.667,0.004l0,83.921l104.759,0Z" style="fill:#1141ff;fill-rule:nonzero;"/><path d="M3291.36,1386.03l-0.005,104.754l104.755,0l-0,104.758l83.924,0l0.005,41.667l-125.596,0l-0,-104.758l-104.754,0.004l-0,-104.758l-104.759,-0l0.004,-125.592l41.663,-0l-0,83.925l104.763,-0Z" style="fill-rule:nonzero;"/><path d="M3136.31,352.896c-0,-115.059 93.275,-208.333 208.333,-208.333c115.058,-0 208.333,93.274 208.333,208.333c0,115.058 -93.275,208.329 -208.333,208.329c-115.058,-0 -208.333,-93.271 -208.333,-208.329Z" style="fill:#1a6cb6;fill-rule:nonzero;"/><path d="M3493.67,602.558c103.391,0 187.5,-84.112 187.5,-187.496c-0,-103.387 -84.109,-187.5 -187.5,-187.5c-103.384,0 -187.5,84.113 -187.5,187.5c-0,103.384 84.116,187.496 187.5,187.496Zm-0,-416.662c126.366,-0 229.166,102.804 229.166,229.166c0,126.359 -102.8,229.163 -229.166,229.163c-126.363,0 -229.167,-102.804 -229.167,-229.163c-0,-126.362 102.804,-229.166 229.167,-229.166Z" style="fill-rule:nonzero;"/><rect x="3170.18" y="2697.15" width="416.667" height="416.667" style="fill:#faf089;fill-rule:nonzero;"/><path d="M3454.8,2786.88l-375,0l-0,375l375,-0l-0,-375Zm-416.667,-41.667l458.334,0l-0,458.334l-458.334,-0l0,-458.334Z" style="fill-rule:nonzero;"/><path d="M592.521,3339.61l240.158,-240.158l29.467,29.463l-240.163,240.158l-29.462,-29.463Z" style="fill:#beceff;fill-rule:nonzero;"/><path d="M586.379,3212.06l237.683,-237.683l29.467,29.462l-237.683,237.684l-29.467,-29.463Z" style="fill:#beceff;fill-rule:nonzero;"/><path d="M427.233,3237.51l233.425,-233.425l29.463,29.463l-233.425,233.425l-29.463,-29.463Z" style="fill:#beceff;fill-rule:nonzero;"/><path d="M467.413,3503.57l240.158,-240.159l29.462,29.463l-240.158,240.162l-29.462,-29.466Z" style="fill-rule:nonzero;"/><path d="M461.271,3376.01l237.683,-237.684l29.463,29.463l-237.684,237.679l-29.462,-29.458Z" style="fill-rule:nonzero;"/><path d="M302.121,3401.47l233.429,-233.43l29.462,29.463l-233.429,233.425l-29.462,-29.458Z" style="fill-rule:nonzero;"/><path d="M1174.74,3418.24c-81.355,-81.359 -81.355,-213.271 -0,-294.626c81.362,-81.358 213.27,-81.358 294.629,0c81.362,81.355 81.362,213.267 -0,294.626c-81.359,81.358 -213.267,81.358 -294.629,-0Z" style="fill:#1a6cb6;fill-rule:nonzero;"/><path d="M1536,3372.8c73.104,-73.108 73.104,-192.063 0,-265.167c-73.108,-73.108 -192.062,-73.108 -265.167,0c-73.104,73.104 -73.104,192.059 0,265.167c73.105,73.104 192.059,73.104 265.167,0Zm-294.629,-294.629c89.354,-89.354 234.737,-89.354 324.087,-0c89.354,89.35 89.354,234.737 0,324.091c-89.35,89.35 -234.733,89.35 -324.087,0c-89.354,-89.354 -89.354,-234.741 -0,-324.091Z" style="fill-rule:nonzero;"/><path d="M2758.33,3142.78l-0.004,104.754l104.758,0l0,104.763l83.921,-0l0,41.662l-125.587,0.004l-0,-104.762l-104.763,0.004l0.005,-104.754l-104.759,-0l0,-125.596l41.667,0.004l-0,83.925l104.762,-0.004Z" style="fill:#1141ff;fill-rule:nonzero;"/><path d="M2800.59,3456.19l0,-104.755l-104.758,0l0,-104.758l-83.925,-0l0,-41.667l125.596,0l-0.004,104.759l104.762,-0l-0.004,104.754l104.754,-0.004l0,125.595l-41.666,0l-0,-83.924l-104.755,-0Z" style="fill-rule:nonzero;"/><path d="M2262.89,3188.32l-318.196,106.066l106.062,-318.2l212.134,212.134Z" style="fill:#f9f188;fill-rule:nonzero;"/><path d="M2257.26,3285.72l-164.462,-164.458l-82.229,246.691l246.691,-82.233Zm-182.67,-241.592l259.804,259.796l-389.7,129.904l129.896,-389.7Z" style="fill-rule:nonzero;"/><path d="M592.521,6.279l240.158,-240.158l29.467,29.462l-240.163,240.163l-29.462,-29.467Z" style="fill:#beceff;fill-rule:nonzero;"/><path d="M467.413,170.237l240.158,-240.158l29.462,29.463l-240.158,240.158l-29.462,-29.463Z" style="fill-rule:nonzero;"/><path d="M461.271,42.679l237.683,-237.683l29.463,29.462l-237.684,237.684l-29.462,-29.463Z" style="fill-rule:nonzero;"/><path d="M302.121,68.133l233.429,-233.425l29.462,29.463l-233.429,233.425l-29.462,-29.463Z" style="fill-rule:nonzero;"/><path d="M1174.74,84.908c-81.355,-81.358 -81.355,-213.271 -0,-294.629c81.362,-81.358 213.27,-81.358 294.629,0c81.362,81.358 81.362,213.271 -0,294.629c-81.359,81.359 -213.267,81.359 -294.629,0Z" style="fill:#1a6cb6;fill-rule:nonzero;"/><path d="M1536,39.467c73.104,-73.104 73.104,-192.059 0,-265.167c-73.108,-73.104 -192.062,-73.104 -265.167,-0c-73.104,73.108 -73.104,192.063 0,265.167c73.105,73.108 192.059,73.108 265.167,-0Zm-294.629,-294.63c89.354,-89.349 234.737,-89.349 324.087,0c89.354,89.355 89.354,234.742 0,324.092c-89.35,89.35 -234.733,89.35 -324.087,0c-89.354,-89.35 -89.354,-234.737 -0,-324.092Z" style="fill-rule:nonzero;"/><path d="M2758.33,-190.554l-0.004,104.754l104.758,0l0,104.758l83.921,0l0,41.663l-125.587,0.004l-0,-104.758l-104.763,0.004l0.005,-104.758l-104.759,-0l0,-125.596l41.667,0.004l-0,83.925l104.762,-0Z" style="fill:#1141ff;fill-rule:nonzero;"/><path d="M2800.59,122.858l0,-104.758l-104.758,0.004l0,-104.758l-83.925,-0l0,-41.667l125.596,-0.004l-0.004,104.758l104.762,0l-0.004,104.759l104.754,-0.005l0,125.596l-41.666,-0.004l-0,-83.921l-104.755,0Z" style="fill-rule:nonzero;"/><path d="M2257.26,-47.608l-164.462,-164.463l-82.229,246.692l246.691,-82.229Zm-182.67,-241.596l259.804,259.8l-389.7,129.904l129.896,-389.704Z" style="fill-rule:nonzero;"/><path d="M2952.97,2164.83c-81.358,81.354 -213.271,81.354 -294.629,0c-81.359,-81.366 -81.359,-213.275 -0,-294.633c81.358,-81.362 213.271,-81.362 294.629,-0c81.358,81.358 81.358,213.267 -0,294.633Z" style="fill:#1a6cb6;fill-rule:nonzero;"/><path d="M2862.04,1962.81c-73.105,-73.105 -192.059,-73.105 -265.167,-0c-73.104,73.108 -73.104,192.062 0,265.166c73.108,73.109 192.062,73.109 265.167,0c73.108,-73.104 73.108,-192.058 -0,-265.166Zm-294.629,294.629c-89.355,-89.35 -89.355,-234.742 -0,-324.092c89.354,-89.35 234.741,-89.35 324.091,-0c89.35,89.35 89.35,234.742 0,324.092c-89.35,89.35 -234.737,89.35 -324.091,-0Z" style="fill-rule:nonzero;"/><path d="M964.596,456.45l-318.2,106.067l106.067,-318.196l212.133,212.129Z" style="fill:#f9f188;fill-rule:nonzero;"/><path d="M954.8,566.354l-164.458,-164.458l-82.229,246.687l246.687,-82.229Zm-182.667,-241.596l259.804,259.8l-389.708,129.905l129.904,-389.705Z" style="fill-rule:nonzero;"/><path d="M792.117,2546.64l74.07,74.079l74.075,-74.079l74.075,74.079l59.342,-59.346l29.463,29.462l-88.805,88.809l-74.075,-74.075l-74.075,74.075l-74.07,-74.075l-74.075,74.075l-88.805,-88.809l29.463,-29.462l59.342,59.346l74.075,-74.079Z" style="fill:#1141ff;fill-rule:nonzero;"/><path d="M604.242,2550.81l74.07,74.08l74.075,-74.08l74.075,74.08l59.342,-59.346l29.467,29.462l-88.809,88.809l-74.075,-74.075l-74.075,74.075l-74.07,-74.075l-74.075,74.075l-88.804,-88.809l29.462,-29.462l59.342,59.346l74.075,-74.08Z" style="fill-rule:nonzero;"/><rect x="2288.5" y="2554.38" width="339.638" height="41.667" style="fill:#beceff;fill-rule:nonzero;"/><rect x="2206.15" y="2648.92" width="336.133" height="41.667" style="fill:#beceff;fill-rule:nonzero;"/><rect x="2342.7" y="2743.46" width="330.112" height="41.667" style="fill:#beceff;fill-rule:nonzero;"/><rect x="2358.1" y="2621.45" width="339.638" height="41.667" style="fill-rule:nonzero;"/><rect x="2275.75" y="2715.99" width="336.133" height="41.667" style="fill-rule:nonzero;"/><rect x="2412.3" y="2810.53" width="330.117" height="41.667" style="fill-rule:nonzero;"/><rect x="485.846" y="894.071" width="416.667" height="416.667" style="fill:#faf089;fill-rule:nonzero;"/><path d="M970.917,994.7l-375,0l-0,375l375,-0l-0,-375Zm-416.667,-41.667l458.333,0l0,458.334l-458.333,-0l0,-458.334Z" style="fill-rule:nonzero;"/><path d="M2757.02,535.129l106.062,318.196l-318.2,-106.067l212.138,-212.129Z" style="fill:#f9f188;fill-rule:nonzero;"/><path d="M2780.41,458.204l-164.462,164.463l246.692,82.229l-82.23,-246.692Zm-241.595,182.671l259.799,-259.8l129.905,389.704l-389.704,-129.904Z" style="fill-rule:nonzero;"/><rect x="3126.7" y="839.463" width="339.638" height="41.667" style="fill:#beceff;fill-rule:nonzero;"/><rect x="3044.35" y="934" width="336.129" height="41.667" style="fill:#beceff;fill-rule:nonzero;"/><rect x="3180.9" y="1028.54" width="330.117" height="41.667" style="fill:#beceff;fill-rule:nonzero;"/><rect x="3196.31" y="906.533" width="339.638" height="41.667" style="fill-rule:nonzero;"/><rect x="3113.96" y="1001.07" width="336.133" height="41.667" style="fill-rule:nonzero;"/><rect x="3250.51" y="1095.61" width="330.112" height="41.667" style="fill-rule:nonzero;"/><rect x="-206.629" y="839.463" width="339.633" height="41.667" style="fill:#beceff;fill-rule:nonzero;"/><rect x="-288.983" y="934" width="336.133" height="41.667" style="fill:#beceff;fill-rule:nonzero;"/><rect x="-152.429" y="1028.54" width="330.113" height="41.667" style="fill:#beceff;fill-rule:nonzero;"/><rect x="-137.021" y="906.533" width="339.633" height="41.667" style="fill-rule:nonzero;"/><rect x="-219.375" y="1001.07" width="336.133" height="41.667" style="fill-rule:nonzero;"/><rect x="-82.821" y="1095.61" width="330.108" height="41.667" style="fill-rule:nonzero;"/><path d="M2076.9,1145.39l-0.004,104.758l104.758,0l0,104.754l83.921,0l0.004,41.667l-125.592,0.004l0,-104.758l-104.758,-0l0,-104.754l-104.754,-0l-0,-125.596l41.666,0.004l0,83.925l104.759,-0.004Z" style="fill:#1141ff;fill-rule:nonzero;"/><path d="M2102.48,1454.64l0.004,-104.759l-104.762,0l0,-104.758l-83.921,-0l0,-41.663l125.592,-0.004l-0.004,104.759l104.762,-0l-0.004,104.754l104.758,-0l-0.004,125.592l-41.667,-0l0,-83.925l-104.754,0.004Z" style="fill-rule:nonzero;"/><rect x="1488.8" y="2330.35" width="416.667" height="416.667" style="fill:#faf089;fill-rule:nonzero;"/><path d="M1773.43,2407.58l-375,-0l0,375l375,-0l0,-375Zm-416.667,-41.667l458.334,0l-0,458.334l-458.334,-0l0,-458.334Z" style="fill-rule:nonzero;"/><rect x="1876.27" y="309.538" width="416.667" height="416.667" style="fill:#faf089;fill-rule:nonzero;"/><path d="M2154.55,414.558l-375,0l0,374.996l375,0l0,-374.996Zm-416.667,-41.666l458.334,-0l-0,458.329l-458.334,-0l0,-458.329Z" style="fill-rule:nonzero;"/><path d="M1415.67,713.367l-74.075,74.07l74.075,74.076l-74.075,74.075l59.341,59.341l-29.458,29.463l-88.813,-88.804l74.08,-74.075l-74.08,-74.076l74.08,-74.07l-74.08,-74.075l88.813,-88.804l29.458,29.462l-59.341,59.342l74.075,74.075Z" style="fill:#1141ff;fill-rule:nonzero;"/><path d="M1448.08,497.25l-74.075,74.075l74.075,74.075l-74.075,74.071l59.342,59.346l-29.459,29.462l-88.812,-88.808l74.079,-74.071l-74.079,-74.075l74.079,-74.075l-74.079,-74.071l88.812,-88.808l29.459,29.466l-59.342,59.342l74.075,74.071Z" style="fill-rule:nonzero;"/><rect x="512.933" y="1865.3" width="41.667" height="339.638" style="fill:#beceff;fill-rule:nonzero;"/><rect x="607.471" y="1951.15" width="41.667" height="336.138" style="fill:#beceff;fill-rule:nonzero;"/><rect x="702.008" y="1820.62" width="41.667" height="330.112" style="fill:#beceff;fill-rule:nonzero;"/><rect x="485.467" y="1660.89" width="41.667" height="339.638" style="fill-rule:nonzero;"/><rect x="580.004" y="1746.75" width="41.667" height="336.133" style="fill-rule:nonzero;"/><rect x="674.542" y="1616.22" width="41.667" height="330.112" style="fill-rule:nonzero;"/><path d="M1922.26,1989.81l318.196,-106.066l-106.067,318.2l-212.129,-212.134Z" style="fill:#f9f188;fill-rule:nonzero;"/><path d="M1862.45,1966.42l164.467,164.462l82.224,-246.691l-246.691,82.229Zm182.671,241.596l-259.8,-259.804l389.704,-129.901l-129.904,389.705Z" style="fill-rule:nonzero;"/><path d="M1327,2092.08l-104.758,0l0.004,104.754l-104.758,0l-0,83.925l-41.667,0l-0.008,-125.595l104.762,0.008l0,-104.763l104.758,0.005l-0.004,-104.759l125.596,0l-0.004,41.667l-83.921,0l0,104.758Z" style="fill:#1141ff;fill-rule:nonzero;"/><path d="M1019.52,2120.68l104.754,0.004l-0,-104.758l104.758,-0l0,-83.921l41.663,-0.004l0.004,125.592l-104.758,-0l-0,104.758l-104.755,-0l0,104.754l-125.591,0l-0,-41.667l83.925,0l-0,-104.758Z" style="fill-rule:nonzero;"/><path d="M1591.75,1315.56c81.363,81.363 81.363,213.271 0,294.63c-81.358,81.362 -213.266,81.362 -294.625,-0c-81.358,-81.359 -81.358,-213.267 0,-294.63c81.359,-81.358 213.267,-81.358 294.625,0Z" style="fill:#1a6cb6;fill-rule:nonzero;"/><path d="M1399.16,1361.81c-73.104,73.109 -73.104,192.059 0,265.167c73.109,73.108 192.063,73.108 265.167,-0c73.104,-73.108 73.104,-192.058 -0,-265.167c-73.104,-73.104 -192.058,-73.104 -265.167,0Zm294.63,294.63c-89.355,89.35 -234.738,89.35 -324.092,-0c-89.35,-89.35 -89.35,-234.738 -0,-324.092c89.354,-89.35 234.737,-89.35 324.092,-0c89.35,89.354 89.35,234.742 -0,324.092Z" style="fill-rule:nonzero;"/><rect x="2520.35" y="1221.46" width="41.667" height="339.638" style="fill:#beceff;fill-rule:nonzero;"/><rect x="2614.88" y="1307.31" width="41.667" height="336.133" style="fill:#beceff;fill-rule:nonzero;"/><rect x="2709.43" y="1176.78" width="41.667" height="330.112" style="fill:#beceff;fill-rule:nonzero;"/><rect x="2587.42" y="1151.85" width="41.667" height="339.638" style="fill-rule:nonzero;"/><rect x="2681.95" y="1237.7" width="41.667" height="336.133" style="fill-rule:nonzero;"/><rect x="2776.49" y="1107.17" width="41.667" height="330.112" style="fill-rule:nonzero;"/></g></svg>